<svg xmlns="http://www.w3.org/2000/svg" viewBox="0 0 64 80">
  <circle cx="32" cy="32" r="30" fill="#f7931a" />
  <path fill="#fff" d="M38.9,43.2a9.3,9.3,0,0,0,2.3-6.1,9.2,9.2,0,0,0-2.3-6.1q-1.3-1.2-4-1.5-2-.2-3.4.1l.7-3.2,2.1.5a9.09,9.09,0,0,0,2.5,0l2.1-.5.7,3.2a9.39,9.39,0,0,0-3.4-.1q-2.7.3-4,1.5a9.2,9.2,0,0,0,0,12.2q1.3,1.2,4,1.5,2,.2,3.4-.1l-.7,3.2-2.1-.5A9.09,9.09,0,0,0,38.9,43.2Z"/>
  <text x="32" y="75" font-family="Arial, sans-serif" font-size="10" fill="#333" text-anchor="middle">
    Bitcoin Forecaster
  </text>
</svg>
